NUDE NUNS WITH BIG GUNS (2010)1080P   
 
[img]http://img821.imageshack.us/img821/7714/posternt.jpg[/img]

Verenigde Staten
Thriller
90 minuten

geregisseerd door Joseph Guzman
met Asun Ortega, Bill Oberst Jr. en Maxie J. Santillan Jr.

Sister Sarah (Asun Ortega) is een toegewijd gelovige. Zij maakt zich dan ook 
om non te worden in een klooster. Haar inwijding in het klooster blijkt een 
ware nachtmerrie te worden. Sarah wordt misbruikt, gehersenspoeld en gedrogeerd 
door de corrupte geestelijkheid. God heeft echter een belangrijke boodschap 
voor haar : neem wraak voor alles wat je in het klooster is overkomen.

English

Storyline

Upon taking her vows to become a nun, Sister Sarah is abused, brainwashed and drugged into submission by the corrupt clergy. On the verge of death from a 

lethal dose of drugs, Sister Sarah receives a message from GOD telling her to take vengeance on all those who did her wrong. Armed with God's will and an 

arsenal of big guns, she dispenses Judgment Day on her former tormentors. When the church hires the merciless motorcycle gang the "Los Muertos" to track 

down and kill her they soon realize that this SISTER IS ONE BAD MOTHER.



Ondertitels: Nederlands 
Audio: English (DTS & AC3)
Container: x264 (MKV)

  Category : Video 
  Format : x264HD 
  Source : Retail 
  Subtitle : Dutch subs optional  
  Genre : Thriller  

  
http://www.moviemeter.nl/film/65006  
http://www.imdb.com/title/tt1352388 



TBS

MEDIA INFO

General
Complete name                    : \NUDE_NUNS_WITH_BIG_GUNS_(2010)_NL_SUBz_1080P_\NNWBG.2010.NLSUBS.x264.BluRay.1080-Legend\Nude nuns with big guns (1080).mkv
Format                           : Matroska
File size                        : 6.97 GiB
Duration                         : 1h 31mn
Overall bit rate                 : 10.9 Mbps
Encoded date                     : UTC 2011-04-22 05:25:42
Writing application              : mkvmerge v2.3.0 ('Freak U') built on Sep  8 2008 18:32:16
Writing library                  : libebml v0.7.7 + libmatroska v0.8.1

Video
ID                               : 1
Format                           : AVC
Format/Info                      : Advanced Video Codec
Format profile                   : High@L4.1
Format settings, CABAC           : Yes
Format settings, ReFrames        : 4 frames
Muxing mode                      : Container profile=Unknown@4.1
Codec ID                         : V_MPEG4/ISO/AVC
Duration                         : 1h 31mn
Bit rate                         : 8 723 Kbps
Width                            : 1 920 pixels
Height                           : 1 080 pixels
Display aspect ratio             : 16:9
Frame rate                       : 23.976 fps
Color space                      : YUV
Chroma subsampling               : 4:2:0
Bit depth                        : 8 bits
Scan type                        : Progressive
Bits/(Pixel*Frame)               : 0.175
Stream size                      : 5.45 GiB (78%)
Writing library                  : x264 core 115 r1937 aa21558
Encoding settings                : cabac=1 / ref=4 / deblock=1:0:0 / analyse=0x3:0x133 / me=umh / subme=7 / psy=1 / psy_rd=1.00:0.00 / mixed_ref=1 / me_range=16 / chroma_me=1 / trellis=1 / 8x8dct=1 / cqm=0 / deadzone=21,11 / fast_pskip=0 / chroma_qp_offset=-2 / threads=12 / sliced_threads=0 / nr=0 / decimate=1 / interlaced=0 / bluray_compat=0 / constrained_intra=0 / bframes=3 / b_pyramid=2 / b_adapt=1 / b_bias=0 / direct=1 / weightb=1 / open_gop=0 / weightp=2 / keyint=250 / keyint_min=23 / scenecut=40 / intra_refresh=0 / rc_lookahead=40 / rc=2pass / mbtree=1 / bitrate=8723 / ratetol=1.0 / qcomp=0.60 / qpmin=0 / qpmax=69 / qpstep=4 / cplxblur=20.0 / qblur=0.5 / ip_ratio=1.40 / aq=1:1.00
Language                         : English

Audio #1
ID                               : 2
Format                           : DTS
Format/Info                      : Digital Theater Systems
Codec ID                         : A_DTS
Duration                         : 1h 31mn
Bit rate mode                    : Constant
Bit rate                         : 1 510 Kbps
Channel(s)                       : 2 channels
Channel positions                : Front: L R
Sampling rate                    : 48.0 KHz
Bit depth                        : 24 bits
Video delay                      : 11ms
Stream size                      : 991 MiB (14%)
Title                            : DTS
Language                         : English

Audio #2
ID                               : 3
Format                           : AC-3
Format/Info                      : Audio Coding 3
Mode extension                   : CM (complete main)
Codec ID                         : A_AC3
Duration                         : 1h 31mn
Bit rate mode                    : Constant
Bit rate                         : 640 Kbps
Channel(s)                       : 2 channels
Channel positions                : Front: L R
Sampling rate                    : 48.0 KHz
Bit depth                        : 16 bits
Stream size                      : 420 MiB (6%)
Title                            : AC3
Language                         : English

Text
ID                               : 4
Format                           : UTF-8
Codec ID                         : S_TEXT/UTF8
Codec ID/Info                    : UTF-8 Plain Text
Title                            : Nederlands
Language                         : Dutch

